<svg width="64" height="64" viewBox="0 0 64 64" fill="none" xmlns="http://www.w3.org/2000/svg">
  <defs>
    <!-- 渐变定义 -->
    <linearGradient id="centerGradient" x1="0%" y1="0%" x2="100%" y2="100%">
      <stop offset="0%" style="stop-color:#3b82f6;stop-opacity:1" />
      <stop offset="100%" style="stop-color:#1d4ed8;stop-opacity:1" />
    </linearGradient>
    <linearGradient id="linkGradient" x1="0%" y1="0%" x2="100%" y2="100%">
      <stop offset="0%" style="stop-color:#06b6d4;stop-opacity:1" />
      <stop offset="100%" style="stop-color:#0891b2;stop-opacity:1" />
    </linearGradient>
    <linearGradient id="accentGradient" x1="0%" y1="0%" x2="100%" y2="100%">
      <stop offset="0%" style="stop-color:#f59e0b;stop-opacity:1" />
      <stop offset="100%" style="stop-color:#d97706;stop-opacity:1" />
    </linearGradient>
  </defs>
  
  <!-- 背景圆形 -->
  <circle cx="32" cy="32" r="30" fill="#f8fafc" stroke="#e2e8f0" stroke-width="2"/>
  
  <!-- 连接线 -->
  <!-- 顶部连接 -->
  <line x1="32" y1="8" x2="32" y2="20" stroke="url(#linkGradient)" stroke-width="3" stroke-linecap="round"/>
  <circle cx="32" cy="6" r="3" fill="url(#accentGradient)"/>
  
  <!-- 右上连接 -->
  <line x1="45.5" y1="18.5" x2="38" y2="26" stroke="url(#linkGradient)" stroke-width="3" stroke-linecap="round"/>
  <circle cx="47.7" cy="16.3" r="3" fill="url(#accentGradient)"/>
  
  <!-- 右下连接 -->
  <line x1="45.5" y1="45.5" x2="38" y2="38" stroke="url(#linkGradient)" stroke-width="3" stroke-linecap="round"/>
  <circle cx="47.7" cy="47.7" r="3" fill="url(#accentGradient)"/>
  
  <!-- 底部连接 -->
  <line x1="32" y1="56" x2="32" y2="44" stroke="url(#linkGradient)" stroke-width="3" stroke-linecap="round"/>
  <circle cx="32" cy="58" r="3" fill="url(#accentGradient)"/>
  
  <!-- 左下连接 -->
  <line x1="18.5" y1="45.5" x2="26" y2="38" stroke="url(#linkGradient)" stroke-width="3" stroke-linecap="round"/>
  <circle cx="16.3" cy="47.7" r="3" fill="url(#accentGradient)"/>
  
  <!-- 左上连接 -->
  <line x1="18.5" y1="18.5" x2="26" y2="26" stroke="url(#linkGradient)" stroke-width="3" stroke-linecap="round"/>
  <circle cx="16.3" cy="16.3" r="3" fill="url(#accentGradient)"/>
  
  <!-- 中心Hub -->
  <circle cx="32" cy="32" r="12" fill="url(#centerGradient)" stroke="#1e40af" stroke-width="2"/>
  
  <!-- 中心点 -->
  <circle cx="32" cy="32" r="4" fill="white" opacity="0.9"/>
  
  <!-- AI元素 - 简化的对话气泡 -->
  <path d="M28 28 L36 28 Q38 28 38 30 L38 34 Q38 36 36 36 L30 36 L28 38 L28 36 Q26 36 26 34 L26 30 Q26 28 28 28 Z" 
        fill="white" opacity="0.8"/>
  <circle cx="29" cy="31" r="1" fill="#1d4ed8"/>
  <circle cx="32" cy="31" r="1" fill="#1d4ed8"/>
  <circle cx="35" cy="31" r="1" fill="#1d4ed8"/>
</svg> 